<svg width="96" height="112" viewBox="76 76 96 112" fill="none" xmlns="http://www.w3.org/2000/svg">
  <path d="M117.77 134.372L108.407 125.155L103.31 130.173L117.77 144.407L146.69 115.938L141.593 110.92L117.77 134.372Z" fill="#4180E3"/>
  <path d="M125 182.46L102.869 170.645C96.5598 167.285 91.2834 162.268 87.6066 156.132C83.9299 149.996 81.9916 142.973 82 135.818V89.1757C82 87.2726 82.7551 85.4474 84.0991 84.1017C85.4431 82.756 87.266 82 89.1667 82H160.833C162.734 82 164.557 82.756 165.901 84.1017C167.245 85.4474 168 87.2726 168 89.1757V135.818C168.008 142.973 166.07 149.996 162.393 156.132C158.717 162.268 153.44 167.285 147.131 170.645L125 182.46ZM89.1667 89.1757V135.818C89.1627 141.672 90.7501 147.417 93.7587 152.437C96.7672 157.457 101.084 161.562 106.245 164.313L125 174.326L143.755 164.316C148.917 161.565 153.234 157.46 156.242 152.439C159.251 147.419 160.838 141.673 160.833 135.818V89.1757H89.1667Z" fill="#4180E3"/>
</svg>
